<svg width="154" height="44" viewBox="0 0 154 44" fill="none" xmlns="http://www.w3.org/2000/svg">
<path d="M49.896 31V13.96H60.264V17.272H53.376V20.8H58.776V24.112H53.376V31H49.896ZM68.1414 31.288C66.2054 31.288 64.6454 30.736 63.4614 29.632C62.2774 28.512 61.6534 27.208 61.5894 25.72H65.0694C65.1974 26.472 65.5414 27.056 66.1014 27.472C66.6614 27.872 67.3414 28.072 68.1414 28.072C68.8614 28.072 69.4454 27.92 69.8934 27.616C70.3414 27.296 70.5654 26.872 70.5654 26.344C70.5654 25.4 69.8054 24.712 68.2854 24.28L66.4854 23.752C65.0934 23.352 64.0054 22.728 63.2214 21.88C62.4374 21.032 62.0374 19.976 62.0214 18.712C62.0214 17.16 62.5414 15.936 63.5814 15.04C64.6214 14.128 66.0054 13.672 67.7334 13.672C69.4774 13.672 70.8934 14.2 71.9814 15.256C73.0694 16.296 73.6454 17.496 73.7094 18.856H70.2534C70.0774 18.184 69.7574 17.688 69.2934 17.368C68.8294 17.048 68.3094 16.888 67.7334 16.888C67.0934 16.888 66.5654 17.032 66.1494 17.32C65.7494 17.592 65.5414 17.976 65.5254 18.472C65.5094 18.984 65.6774 19.4 66.0294 19.72C66.3814 20.04 66.9254 20.304 67.6614 20.512L69.6534 21.064C72.5974 21.88 74.0694 23.6 74.0694 26.224C74.0694 27.696 73.5174 28.912 72.4134 29.872C71.3254 30.816 69.9014 31.288 68.1414 31.288ZM92.2929 15.616C93.4289 16.704 93.9969 18.064 93.9969 19.696C93.9969 21.328 93.4289 22.696 92.2929 23.8C91.1569 24.888 89.7329 25.432 88.0209 25.432H85.8369V31H82.3569V13.96H88.0209C89.7329 13.96 91.1569 14.512 92.2929 15.616ZM89.8929 21.472C90.3729 21.008 90.6129 20.416 90.6129 19.696C90.6129 18.976 90.3729 18.384 89.8929 17.92C89.4129 17.456 88.7729 17.224 87.9729 17.224H85.8369V22.168H87.9729C88.7729 22.168 89.4129 21.936 89.8929 21.472ZM105.693 29.464C104.461 30.664 102.973 31.264 101.229 31.264C99.485 31.264 97.997 30.664 96.765 29.464C95.533 28.248 94.917 26.76 94.917 25C94.917 23.256 95.533 21.776 96.765 20.56C97.997 19.344 99.485 18.736 101.229 18.736C102.973 18.736 104.461 19.344 105.693 20.56C106.925 21.776 107.541 23.256 107.541 25C107.541 26.76 106.925 28.248 105.693 29.464ZM101.229 28.192C102.077 28.192 102.781 27.896 103.341 27.304C103.917 26.696 104.205 25.928 104.205 25C104.205 24.072 103.917 23.312 103.341 22.72C102.781 22.112 102.077 21.808 101.229 21.808C100.365 21.808 99.645 22.112 99.069 22.72C98.509 23.312 98.229 24.072 98.229 25C98.229 25.928 98.509 26.696 99.069 27.304C99.645 27.896 100.365 28.192 101.229 28.192ZM114.544 31.264C113.008 31.264 111.736 30.88 110.728 30.112C109.72 29.344 109.184 28.368 109.12 27.184H112.552C112.616 27.696 112.84 28.088 113.224 28.36C113.608 28.616 114.08 28.744 114.64 28.744C115.68 28.744 116.2 28.424 116.2 27.784C116.2 27.464 116.08 27.224 115.84 27.064C115.616 26.888 115.232 26.728 114.688 26.584L112.432 26.008C111.408 25.736 110.64 25.28 110.128 24.64C109.632 23.984 109.384 23.2 109.384 22.288C109.384 21.248 109.816 20.4 110.68 19.744C111.56 19.072 112.736 18.736 114.208 18.736C115.552 18.736 116.672 19.08 117.568 19.768C118.464 20.44 118.96 21.36 119.056 22.528H115.744C115.6 21.712 115.072 21.304 114.16 21.304C113.728 21.304 113.384 21.384 113.128 21.544C112.872 21.704 112.744 21.928 112.744 22.216C112.744 22.744 113.2 23.112 114.112 23.32L116.224 23.896C117.392 24.184 118.24 24.64 118.768 25.264C119.296 25.872 119.56 26.656 119.56 27.616C119.56 28.72 119.088 29.608 118.144 30.28C117.216 30.936 116.016 31.264 114.544 31.264ZM127.462 31.144C126.118 31.144 125.014 30.776 124.15 30.04C123.302 29.288 122.878 28.208 122.878 26.8V21.88H120.454V19H122.878V15.664H126.166V19H129.55V21.88H126.166V26.152C126.166 26.888 126.326 27.416 126.646 27.736C126.966 28.04 127.486 28.192 128.206 28.192C128.718 28.192 129.166 28.12 129.55 27.976V30.88C128.974 31.056 128.278 31.144 127.462 31.144ZM137.252 31.264C135.412 31.264 133.9 30.672 132.716 29.488C131.548 28.304 130.964 26.8 130.964 24.976C130.964 23.184 131.556 21.696 132.74 20.512C133.94 19.328 135.452 18.736 137.276 18.736C139.116 18.736 140.644 19.368 141.86 20.632C143.076 21.88 143.636 23.592 143.54 25.768H134.18C134.244 26.52 134.556 27.152 135.116 27.664C135.676 28.16 136.444 28.408 137.42 28.408C138.012 28.408 138.532 28.296 138.98 28.072C139.444 27.832 139.772 27.504 139.964 27.088H143.396C143.044 28.32 142.308 29.328 141.188 30.112C140.068 30.88 138.756 31.264 137.252 31.264ZM137.18 21.4C136.428 21.4 135.796 21.6 135.284 22C134.788 22.384 134.46 22.92 134.3 23.608H139.94C139.764 22.856 139.412 22.304 138.884 21.952C138.372 21.584 137.804 21.4 137.18 21.4ZM145.936 31V19H149.224V20.92C149.432 20.328 149.808 19.84 150.352 19.456C150.912 19.056 151.528 18.856 152.2 18.856C152.616 18.856 152.984 18.904 153.304 19V22.336C152.776 22.16 152.28 22.072 151.816 22.072C151.032 22.072 150.4 22.36 149.92 22.936C149.456 23.496 149.224 24.272 149.224 25.264V31H145.936Z" fill="#2E3A59"/>
<circle cx="16" cy="16" r="16" fill="#FF3D71"/>
<rect x="7" y="34" width="18" height="4" rx="2" fill="#FF3D71"/>
<rect x="10" y="40" width="12" height="4" rx="2" fill="#FF3D71"/>
<path d="M13 20L9.70711 16.7071C9.31658 16.3166 9.31658 15.6834 9.70711 15.2929L13 12" stroke="white" stroke-width="2" stroke-linecap="round" stroke-linejoin="round"/>
<path d="M19 20L22.2929 16.7071C22.6834 16.3166 22.6834 15.6834 22.2929 15.2929L19 12" stroke="white" stroke-width="2" stroke-linecap="round" stroke-linejoin="round"/>
</svg>
